<svg width="40" height="41" viewBox="0 0 40 41" fill="none" xmlns="http://www.w3.org/2000/svg">
<path d="M32.1347 10.132L9.63474 32.632C9.40019 32.8666 9.08207 32.9983 8.75037 32.9983C8.41866 32.9983 8.10054 32.8666 7.86599 32.632C7.63144 32.3975 7.49967 32.0793 7.49967 31.7476C7.49967 31.4159 7.63144 31.0978 7.86599 30.8633L30.366 8.36326C30.6003 8.12871 30.9183 7.99685 31.2498 7.99671C31.5814 7.99656 31.8994 8.12813 32.134 8.36248C32.3685 8.59682 32.5004 8.91474 32.5005 9.2463C32.5007 9.57786 32.3691 9.89589 32.1347 10.1304V10.132ZM7.89724 16.3508C6.84238 15.2957 6.24985 13.8648 6.25 12.3729C6.25015 10.8809 6.84296 9.45015 7.89802 8.39529C8.95309 7.34043 10.384 6.7479 11.8759 6.74805C13.3679 6.74819 14.7986 7.341 15.8535 8.39607C16.9083 9.45113 17.5009 10.882 17.5007 12.374C17.5006 13.8659 16.9078 15.2967 15.8527 16.3515C14.7976 17.4064 13.3668 17.9989 11.8748 17.9988C10.3829 17.9986 8.9521 17.4058 7.89724 16.3508ZM8.75037 12.3758C8.75077 12.8896 8.87787 13.3954 9.1204 13.8484C9.36294 14.3013 9.71343 14.6875 10.1408 14.9727C10.5682 15.2579 11.0594 15.4333 11.5708 15.4834C12.0821 15.5335 12.598 15.4567 13.0726 15.2599C13.5472 15.063 13.966 14.7522 14.2918 14.3548C14.6176 13.9575 14.8404 13.486 14.9405 12.982C15.0406 12.478 15.0149 11.9571 14.8656 11.4655C14.7163 10.9738 14.4481 10.5265 14.0847 10.1633C13.6475 9.72616 13.0905 9.42858 12.4841 9.30816C11.8777 9.18773 11.2492 9.24988 10.6781 9.48673C10.1071 9.72359 9.61908 10.1245 9.27593 10.6388C8.93278 11.153 8.74988 11.7575 8.75037 12.3758ZM33.7504 28.6258C33.7501 29.9271 33.2986 31.1881 32.4728 32.1939C31.647 33.1997 30.498 33.888 29.2216 34.1416C27.9452 34.3952 26.6203 34.1984 25.4727 33.5847C24.3252 32.971 23.4259 31.9784 22.9281 30.776C22.4303 29.5736 22.3649 28.2358 22.7429 26.9906C23.1209 25.7453 23.919 24.6697 25.0011 23.9469C26.0833 23.2241 27.3826 22.8989 28.6777 23.0266C29.9727 23.1544 31.1834 23.7273 32.1035 24.6476C32.6275 25.1689 33.0428 25.7888 33.3255 26.4717C33.6082 27.1546 33.7526 27.8867 33.7504 28.6258ZM31.2504 28.6258C31.2505 27.9028 31 27.2021 30.5414 26.6431C30.0829 26.0841 29.4447 25.7014 28.7356 25.5603C28.0266 25.4191 27.2905 25.5281 26.6528 25.8688C26.0151 26.2095 25.5153 26.7608 25.2385 27.4287C24.9617 28.0966 24.925 28.8398 25.1348 29.5317C25.3445 30.2236 25.7877 30.8214 26.3888 31.2231C26.9899 31.6249 27.7117 31.8058 28.4312 31.7351C29.1507 31.6643 29.8234 31.3463 30.3347 30.8351C30.6258 30.5457 30.8567 30.2014 31.0138 29.8221C31.171 29.4429 31.2514 29.0363 31.2504 28.6258Z" fill="#1E2810"/>
</svg>
