<svg width="24" height="24" viewBox="0 0 24 24" fill="none" xmlns="http://www.w3.org/2000/svg">
<path d="M16.4998 21.7495C16.4998 21.9484 16.4208 22.1391 16.2801 22.2798C16.1395 22.4205 15.9487 22.4995 15.7498 22.4995H8.24982C8.05091 22.4995 7.86014 22.4205 7.71949 22.2798C7.57884 22.1391 7.49982 21.9484 7.49982 21.7495C7.49982 21.5506 7.57884 21.3598 7.71949 21.2191C7.86014 21.0785 8.05091 20.9995 8.24982 20.9995H15.7498C15.9487 20.9995 16.1395 21.0785 16.2801 21.2191C16.4208 21.3598 16.4998 21.5506 16.4998 21.7495ZM20.2498 9.74947C20.253 10.9998 19.9706 12.2343 19.424 13.3588C18.8775 14.4833 18.0812 15.468 17.0961 16.2379C16.9119 16.3791 16.7624 16.5605 16.659 16.7684C16.5557 16.9762 16.5012 17.2049 16.4998 17.437V17.9995C16.4998 18.3973 16.3418 18.7788 16.0605 19.0601C15.7792 19.3414 15.3976 19.4995 14.9998 19.4995H8.99982C8.60199 19.4995 8.22046 19.3414 7.93916 19.0601C7.65785 18.7788 7.49982 18.3973 7.49982 17.9995V17.437C7.49966 17.2077 7.44694 16.9814 7.34568 16.7757C7.24443 16.5699 7.09735 16.3901 6.91575 16.2501C5.93307 15.4848 5.13736 14.5059 4.58886 13.3876C4.04036 12.2694 3.75344 11.041 3.74982 9.7954C3.72544 5.32728 7.33669 1.60634 11.8011 1.49946C12.9011 1.47296 13.9953 1.66676 15.0193 2.06948C16.0433 2.4722 16.9764 3.07569 17.7636 3.84443C18.5509 4.61316 19.1764 5.53162 19.6034 6.54574C20.0303 7.55985 20.2501 8.64913 20.2498 9.74947ZM18.7498 9.74947C18.7501 8.84915 18.5702 7.95788 18.2209 7.12811C17.8715 6.29835 17.3596 5.54686 16.7155 4.91788C16.0713 4.28891 15.3078 3.79515 14.4699 3.46569C13.6321 3.13623 12.7367 2.97771 11.8367 2.99946C8.18044 3.08571 5.23013 6.12978 5.24982 9.78603C5.25324 10.8047 5.48831 11.8093 5.93724 12.7237C6.38617 13.6381 7.0372 14.4384 7.84107 15.0642C8.20242 15.3451 8.49471 15.7049 8.69555 16.1162C8.8964 16.5275 9.00047 16.9793 8.99982 17.437V17.9995H14.9998V17.437C15.0009 16.978 15.1067 16.5253 15.3093 16.1134C15.5119 15.7015 15.8059 15.3414 16.1689 15.0604C16.9752 14.4302 17.6269 13.6242 18.0742 12.7037C18.5215 11.7833 18.7526 10.7728 18.7498 9.74947ZM17.2395 8.87384C17.045 7.78756 16.5224 6.78693 15.742 6.00668C14.9616 5.22643 13.9608 4.70402 12.8745 4.50978C12.7774 4.4934 12.678 4.49632 12.5819 4.51837C12.4859 4.54041 12.3952 4.58115 12.3149 4.63826C12.2347 4.69537 12.1665 4.76773 12.1142 4.8512C12.0619 4.93468 12.0265 5.02764 12.0101 5.12478C11.9938 5.22191 11.9967 5.32133 12.0187 5.41734C12.0408 5.51334 12.0815 5.60407 12.1386 5.68434C12.1957 5.7646 12.2681 5.83283 12.3516 5.88513C12.435 5.93743 12.528 5.97278 12.6251 5.98915C14.1786 6.25072 15.4967 7.56884 15.7601 9.12509C15.7898 9.29977 15.8804 9.4583 16.0158 9.57258C16.1512 9.68687 16.3226 9.74953 16.4998 9.74947C16.5422 9.74921 16.5845 9.74576 16.6264 9.73915C16.8224 9.70569 16.9971 9.59573 17.1121 9.43345C17.2271 9.27118 17.2729 9.06989 17.2395 8.87384Z" fill="#5F990F"/>
</svg>
