<svg width="39" height="39" viewBox="0 0 39 39" fill="none" xmlns="http://www.w3.org/2000/svg">
<path d="M38.7347 19.3673C38.7347 30.0636 30.0636 38.7347 19.3673 38.7347C8.67105 38.7347 0 30.0636 0 19.3673C0 8.67105 8.67105 0 19.3673 0C30.0636 0 38.7347 8.67105 38.7347 19.3673ZM6.4835 19.3673C6.4835 26.4829 12.2518 32.2512 19.3673 32.2512C26.4829 32.2512 32.2512 26.4829 32.2512 19.3673C32.2512 12.2518 26.4829 6.4835 19.3673 6.4835C12.2518 6.4835 6.4835 12.2518 6.4835 19.3673Z" fill="#8DC63F"/>
<path d="M38.7347 19.3673C38.7347 16.7526 38.2052 14.1649 37.1782 11.7603C36.1512 9.35575 34.6479 7.18401 32.759 5.37603C30.8701 3.56806 28.6346 2.16129 26.1874 1.24054C23.7401 0.319784 21.1318 -0.0958933 18.5195 0.0185646L18.8034 6.49585C20.5411 6.41971 22.2763 6.69623 23.9043 7.30875C25.5323 7.92127 27.0194 8.8571 28.2759 10.0598C29.5325 11.2626 30.5326 12.7073 31.2158 14.3069C31.8989 15.9065 32.2512 17.6279 32.2512 19.3673H38.7347Z" fill="#424F30"/>
<rect x="12.416" y="15.8916" width="5.46258" height="10.9252" fill="#424F30"/>
<rect x="20.361" y="11.4219" width="5.46258" height="15.3945" fill="#8DC63F"/>
</svg>
