<svg width="24" height="24" viewBox="0 0 24 24" fill="none" xmlns="http://www.w3.org/2000/svg">
<path d="M22.4728 11.7184L20.9334 3.46835C20.8958 3.26726 20.8175 3.07598 20.7032 2.90628C20.5889 2.73659 20.4411 2.59207 20.2689 2.4816C20.0967 2.37113 19.9038 2.29706 19.7019 2.26393C19.5 2.23081 19.2935 2.23933 19.095 2.28898L19.0659 2.29742L14.1422 3.7496H9.85781L4.93406 2.3021L4.905 2.29367C4.70653 2.24402 4.5 2.2355 4.29812 2.26862C4.09623 2.30175 3.90326 2.37582 3.73106 2.48629C3.55886 2.59675 3.41108 2.74128 3.29681 2.91097C3.18253 3.08067 3.10418 3.27194 3.06656 3.47304L1.52719 11.7184C1.46136 12.0486 1.51022 12.3914 1.6657 12.69C1.82117 12.9887 2.07394 13.2254 2.38219 13.3609C2.5796 13.4514 2.79407 13.4987 3.01125 13.4996C3.27119 13.4995 3.52633 13.4295 3.75 13.2971V17.2496C3.75 18.2442 4.14509 19.198 4.84835 19.9013C5.55161 20.6045 6.50544 20.9996 7.5 20.9996H16.5C17.4946 20.9996 18.4484 20.6045 19.1517 19.9013C19.8549 19.198 20.25 18.2442 20.25 17.2496V13.298C20.4734 13.4302 20.7282 13.5002 20.9878 13.5005C21.2052 13.4999 21.42 13.4529 21.6178 13.3627C21.9264 13.2272 22.1795 12.9902 22.335 12.6911C22.4905 12.3921 22.5391 12.0489 22.4728 11.7184ZM3 11.9996L4.54031 3.7496L8.48438 4.90929L3 11.9996ZM16.5 19.4996H12.75V18.3099L14.0306 17.0302C14.1714 16.8895 14.2504 16.6986 14.2504 16.4996C14.2504 16.3006 14.1714 16.1097 14.0306 15.969C13.8899 15.8282 13.699 15.7492 13.5 15.7492C13.301 15.7492 13.1101 15.8282 12.9694 15.969L12 16.9393L11.0306 15.969C10.8899 15.8282 10.699 15.7492 10.5 15.7492C10.301 15.7492 10.1101 15.8282 9.96938 15.969C9.82864 16.1097 9.74958 16.3006 9.74958 16.4996C9.74958 16.6986 9.82864 16.8895 9.96938 17.0302L11.25 18.3099V19.4996H7.5C6.90326 19.4996 6.33097 19.2626 5.90901 18.8406C5.48705 18.4186 5.25 17.8463 5.25 17.2496V11.5412L10.1175 5.2496H13.8816L18.75 11.5412V17.2496C18.75 17.8463 18.5129 18.4186 18.091 18.8406C17.669 19.2626 17.0967 19.4996 16.5 19.4996ZM21 11.9996L15.5156 4.90929L19.4597 3.7496L21 11.9996ZM9.75 13.1246C9.75 13.3471 9.68402 13.5646 9.5604 13.7496C9.43679 13.9346 9.26109 14.0788 9.05552 14.164C8.84995 14.2491 8.62375 14.2714 8.40552 14.228C8.18729 14.1846 7.98684 14.0774 7.8295 13.9201C7.67217 13.7628 7.56503 13.5623 7.52162 13.3441C7.47821 13.1259 7.50049 12.8997 7.58564 12.6941C7.67078 12.4885 7.81498 12.3128 7.99998 12.1892C8.18499 12.0656 8.4025 11.9996 8.625 11.9996C8.92337 11.9996 9.20952 12.1181 9.4205 12.3291C9.63147 12.5401 9.75 12.8262 9.75 13.1246ZM16.5 13.1246C16.5 13.3471 16.434 13.5646 16.3104 13.7496C16.1868 13.9346 16.0111 14.0788 15.8055 14.164C15.6 14.2491 15.3738 14.2714 15.1555 14.228C14.9373 14.1846 14.7368 14.0774 14.5795 13.9201C14.4222 13.7628 14.315 13.5623 14.2716 13.3441C14.2282 13.1259 14.2505 12.8997 14.3356 12.6941C14.4208 12.4885 14.565 12.3128 14.75 12.1892C14.935 12.0656 15.1525 11.9996 15.375 11.9996C15.6734 11.9996 15.9595 12.1181 16.1705 12.3291C16.3815 12.5401 16.5 12.8262 16.5 13.1246Z" fill="#1E2810"/>
</svg>
